# xmcd CD database file
#
# Track frame offsets:
#	150
#	22203
#	52865
#
# Disc length: 999 seconds
#
# Revision: 0
# Processed by: cddbd v1.5.1PL0 Copyright (c) Steve Scherf et al.
# Submitted via: CDex 1.51
#
DISCID=1e03e503
DTITLE=松田聖子 - 素敵な明日
DYEAR=2002
DGENRE=JPop
TTITLE0=素敵な明日
TTITLE1=Re-Mix 素敵な明日
TTITLE2=素敵な明日（オリジナル・カラオケ）
EXTD=YEAR: 2002
EXTT0=
EXTT1=
EXTT2=
PLAYORDER=
